<?xml version="1.0" encoding="UTF-8" standalone="no"?>
<!-- Generator: Adobe Illustrator 18.0.0, SVG Export Plug-In . SVG Version: 6.00 Build 0)  -->

<svg
   xmlns:dc="http://purl.org/dc/elements/1.1/"
   xmlns:cc="http://creativecommons.org/ns#"
   xmlns:rdf="http://www.w3.org/1999/02/22-rdf-syntax-ns#"
   xmlns:svg="http://www.w3.org/2000/svg"
   xmlns="http://www.w3.org/2000/svg"
   xmlns:sodipodi="http://sodipodi.sourceforge.net/DTD/sodipodi-0.dtd"
   xmlns:inkscape="http://www.inkscape.org/namespaces/inkscape"
   version="1.1"
   id="Layer_1"
   x="0px"
   y="0px"
   viewBox="0 0 427.50391 426.90359"
   enable-background="new 0 0 612 792"
   xml:space="preserve"
   inkscape:version="0.91 r13725"
   sodipodi:docname="avatar.svg"
   width="427.50391"
   height="426.90359"><metadata
     id="metadata17"><rdf:RDF><cc:Work
         rdf:about=""><dc:format>image/svg+xml</dc:format><dc:type
           rdf:resource="http://purl.org/dc/dcmitype/StillImage" /><dc:title /></cc:Work></rdf:RDF></metadata><defs
     id="defs15" /><sodipodi:namedview
     pagecolor="#ffffff"
     bordercolor="#666666"
     borderopacity="1"
     objecttolerance="10"
     gridtolerance="10"
     guidetolerance="10"
     inkscape:pageopacity="0"
     inkscape:pageshadow="2"
     inkscape:window-width="1838"
     inkscape:window-height="954"
     id="namedview13"
     showgrid="false"
     fit-margin-top="0"
     fit-margin-left="0"
     fit-margin-right="0"
     fit-margin-bottom="0"
     inkscape:zoom="1.1919192"
     inkscape:cx="394.92904"
     inkscape:cy="294.14509"
     inkscape:window-x="0"
     inkscape:window-y="27"
     inkscape:window-maximized="1"
     inkscape:current-layer="Layer_1" /><path
     d="m -96.396083,464.40072 c 198.600003,0 397.300003,0 595.900003,0 12.9,0 12.9,0 12.9,-12.9 0,-167.9 0,-335.8 0,-503.599995 2.9,-0.6 1.8,1.6 1.8,2.8 0,170.299995 0,340.699995 0.2,510.999995 0,6.5 -3.6,4.6 -6.6,4.6 -69.2,0.1 -138.4,0 -207.6,0 -129.5,0 -258.900003,0 -388.400003,-0.1 -2.6,-0.1 -6.2,2 -8.2,-1.8 z"
     id="path3"
     inkscape:connector-curvature="0"
     style="fill:#fefefe" /><path
     d="m 427.50392,214.20072 c -2.8,119.9 -95.2,213.3 -215,212.7 -120.000003,-0.6 -213.20000278,-94.9 -212.50000278,-214.7 C 0.70391722,92.600725 94.503917,-0.29927547 214.00392,7.245264e-4 333.90392,0.30072453 425.50392,94.400725 427.50392,214.20072 Z"
     id="path5"
     inkscape:connector-curvature="0"
     style="fill:#b1b1b1" /><path
     d="m 306.00392,213.10072 c 0,14.7 0.1,29.5 -0.1,44.2 -0.1,3.7 2.4,9.7 -4.9,9.4 -7.2,-0.2 -4.4,-6.2 -4.5,-9.9 -0.4,-10.1 -0.6,-20.3 0,-30.4 0.5,-8 -2.7,-9.9 -10,-9.6 -14.4,0.5 -28.9,0.5 -43.3,0 -7,-0.2 -9.9,1.5 -9.5,9.1 0.6,11.3 0.1,22.7 0.2,34.1 0,3.5 0.1,6.7 -5,6.9 -5.3,0.1 -6,-2.7 -6,-6.9 0.1,-31 0.1,-62 0,-93 0,-3.9 0,-7.3 5.6,-7.3 5.7,0 5.4,3.6 5.4,7.4 0,10.4 0.2,20.9 -0.1,31.3 -0.1,5.2 1.1,7.9 7.1,7.8 16.3,-0.3 32.5,-0.2 48.8,0 5.4,0.1 6.8,-2.3 6.7,-7.2 -0.2,-10.7 -0.1,-21.5 -0.1,-32.2 0,-3.5 -0.2,-7 4.9,-7 5.2,0.1 4.7,3.8 4.7,7.1 0.1,15.5 0.1,30.8 0.1,46.2 z"
     id="path7"
     inkscape:connector-curvature="0"
     style="fill:#ebebeb" /><path
     d="m 164.70392,159.90072 c 4.2,-0.7 5.9,1.6 7.2,5.2 11.6,31.3 23.3,62.6 34.8,93.9 0.9,2.3 4.5,5.9 -0.1,7.5 -3.6,1.3 -8.1,1.2 -9.9,-3.9 -2.4,-6.9 -5.1,-13.8 -7.2,-20.8 -1.8,-5.8 -4.7,-8.6 -11.2,-8.2 -9.5,0.5 -19,0.5 -28.5,0 -5.6,-0.3 -8.3,1.9 -10,7 -2.2,7 -4.9,13.9 -7.5,20.7 -1.1,2.9 -2.3,5.6 -6.3,5.6 -4.4,0 -7.2,-0.2 -5,-6 12.1,-32.1 24,-64.3 35.9,-96.4 1.4,-3.8 4,-5.2 7.8,-4.6 z"
     id="path9"
     inkscape:connector-curvature="0"
     style="fill:#ebebeb" /><path
     d="m 164.30392,173.00072 c 6.4,17.4 11.8,32.1 17.1,46.9 1.2,3.3 -0.5,4.5 -3.6,4.6 -9.2,0 -18.3,0 -27.5,0.1 -3.6,0.1 -4.3,-1.6 -3.2,-4.5 5.4,-14.9 10.8,-29.6 17.2,-47.1 z"
     id="path11"
     inkscape:connector-curvature="0"
     style="fill:#b1b1b1" /></svg>