<?xml version="1.0" encoding="utf-8"?>
<!-- Generator: Adobe Illustrator 18.0.0, SVG Export Plug-In . SVG Version: 6.00 Build 0)  -->
<!DOCTYPE svg PUBLIC "-//W3C//DTD SVG 1.1//EN" "http://www.w3.org/Graphics/SVG/1.1/DTD/svg11.dtd">
<svg version="1.1" id="Layer_1" xmlns="http://www.w3.org/2000/svg" xmlns:xlink="http://www.w3.org/1999/xlink" x="0px" y="0px"
	 viewBox="0 0 612 792" enable-background="new 0 0 612 792" xml:space="preserve">
<path fill="#FEFEFE" d="M1.1,654.2c198.6,0,397.3,0,595.9,0c12.9,0,12.9,0,12.9-12.9c0-167.9,0-335.8,0-503.6
	c2.9-0.6,1.8,1.6,1.8,2.8c0,170.3,0,340.7,0.2,511c0,6.5-3.6,4.6-6.6,4.6c-69.2,0.1-138.4,0-207.6,0c-129.5,0-258.9,0-388.4-0.1
	C6.7,655.9,3.1,658,1.1,654.2z"/>
<path fill="#B1B1B1" d="M525,404c-2.8,119.9-95.2,213.3-215,212.7C190,616.1,96.8,521.8,97.5,402c0.7-119.6,94.5-212.5,214-212.2
	C431.4,190.1,523,284.2,525,404z"/>
<path fill="#EBEBEB" d="M403.5,402.9c0,14.7,0.1,29.5-0.1,44.2c-0.1,3.7,2.4,9.7-4.9,9.4c-7.2-0.2-4.4-6.2-4.5-9.9
	c-0.4-10.1-0.6-20.3,0-30.4c0.5-8-2.7-9.9-10-9.6c-14.4,0.5-28.9,0.5-43.3,0c-7-0.2-9.9,1.5-9.5,9.1c0.6,11.3,0.1,22.7,0.2,34.1
	c0,3.5,0.1,6.7-5,6.9c-5.3,0.1-6-2.7-6-6.9c0.1-31,0.1-62,0-93c0-3.9,0-7.3,5.6-7.3c5.7,0,5.4,3.6,5.4,7.4c0,10.4,0.2,20.9-0.1,31.3
	c-0.1,5.2,1.1,7.9,7.1,7.8c16.3-0.3,32.5-0.2,48.8,0c5.4,0.1,6.8-2.3,6.7-7.2c-0.2-10.7-0.1-21.5-0.1-32.2c0-3.5-0.2-7,4.9-7
	c5.2,0.1,4.7,3.8,4.7,7.1C403.5,372.2,403.5,387.5,403.5,402.9z"/>
<path fill="#EBEBEB" d="M262.2,349.7c4.2-0.7,5.9,1.6,7.2,5.2c11.6,31.3,23.3,62.6,34.8,93.9c0.9,2.3,4.5,5.9-0.1,7.5
	c-3.6,1.3-8.1,1.2-9.9-3.9c-2.4-6.9-5.1-13.8-7.2-20.8c-1.8-5.8-4.7-8.6-11.2-8.2c-9.5,0.5-19,0.5-28.5,0c-5.6-0.3-8.3,1.9-10,7
	c-2.2,7-4.9,13.9-7.5,20.7c-1.1,2.9-2.3,5.6-6.3,5.6c-4.4,0-7.2-0.2-5-6c12.1-32.1,24-64.3,35.9-96.4
	C255.8,350.5,258.4,349.1,262.2,349.7z"/>
<path fill="#B1B1B1" d="M261.8,362.8c6.4,17.4,11.8,32.1,17.1,46.9c1.2,3.3-0.5,4.5-3.6,4.6c-9.2,0-18.3,0-27.5,0.1
	c-3.6,0.1-4.3-1.6-3.2-4.5C250,395,255.4,380.3,261.8,362.8z"/>
</svg>
